# This file uses meters as units for non-parametric coordinates.

g default
v -30.000002 27.652314 9.999997
v -19.999998 27.652314 9.999999
v -30.000000 28.409055 9.999999
v -19.999998 28.409055 9.999999
v -30.000002 28.409055 0.000000
v -19.999998 28.409055 0.000000
v -30.000002 27.652314 0.000000
v -19.999998 27.652314 0.000000
vt 0.003477 0.496791
vt 0.003477 0.005834
vt 0.040630 0.005834
vt 0.040630 0.496791
vt 0.050498 0.496791
vt 0.050498 0.005833
vt 0.541455 0.005833
vt 0.541455 0.496791
vt 0.564108 0.495908
vt 0.564108 0.004951
vt 0.601260 0.004951
vt 0.601260 0.495908
vt 0.061349 0.995049
vt 0.061349 0.504092
vt 0.552306 0.504092
vt 0.552306 0.995049
vt 0.612937 0.495908
vt 0.612937 0.004951
vt 0.650090 0.004951
vt 0.650090 0.495908
vt 0.661766 0.495908
vt 0.661766 0.004951
vt 0.698919 0.004951
vt 0.698919 0.495908
vn -0.000000 -0.000002 1.000000
vn -0.000000 -0.000002 1.000000
vn -0.000000 -0.000002 1.000000
vn -0.000000 -0.000002 1.000000
vn 0.000000 1.000000 0.000000
vn 0.000000 1.000000 0.000000
vn 0.000000 1.000000 0.000000
vn 0.000000 1.000000 0.000000
vn 0.000000 0.000000 -1.000000
vn 0.000000 0.000000 -1.000000
vn 0.000000 0.000000 -1.000000
vn 0.000000 0.000000 -1.000000
vn 0.000000 -1.000000 0.000000
vn 0.000000 -1.000000 0.000000
vn 0.000000 -1.000000 0.000000
vn 0.000000 -1.000000 0.000000
vn 1.000000 0.000000 0.000000
vn 1.000000 0.000000 0.000000
vn 1.000000 0.000000 0.000000
vn 1.000000 0.000000 0.000000
vn -1.000000 0.000000 0.000000
vn -1.000000 0.000000 0.000000
vn -1.000000 0.000000 0.000000
vn -1.000000 0.000000 0.000000
g pCube1
f 1/1/1 2/2/2 4/3/3 3/4/4
f 3/5/5 4/6/6 6/7/7 5/8/8
f 5/9/9 6/10/10 8/11/11 7/12/12
f 7/13/13 8/14/14 2/15/15 1/16/16
f 2/17/17 8/18/18 6/19/19 4/20/20
f 7/21/21 1/22/22 3/23/23 5/24/24
